<?xml version="1.0" encoding="utf-8"?>
<!-- Generator: Adobe Illustrator 25.3.1, SVG Export Plug-In . SVG Version: 6.00 Build 0)  -->
<svg version="1.1" id="Layer_1" xmlns="http://www.w3.org/2000/svg" xmlns:xlink="http://www.w3.org/1999/xlink" x="0px" y="0px"
	 viewBox="0 0 800 1242.4" style="enable-background:new 0 0 800 1242.4;" xml:space="preserve">
<style type="text/css">
	.st0{opacity:0.36;fill:#1E1E1E;stroke:#575756;stroke-miterlimit:10;}
	.st1{opacity:0.94;fill:#070707;stroke:#706F6F;stroke-miterlimit:10;}
	.st2{stroke:#706F6F;stroke-miterlimit:10;}
	.st3{fill:#FFFFFF;}
	.st4{stroke:#2FAC66;stroke-width:4;stroke-miterlimit:10;}
</style>
<g>
	<path class="st0" d="M617.9,813.11H184.36c-14.6,0-26.43-11.84-26.43-26.43V116.69c0-14.6,11.84-26.43,26.43-26.43H617.9
		c14.6,0,26.43,11.84,26.43,26.43v669.99C644.33,801.27,632.49,813.11,617.9,813.11z"/>
	<path class="st1" d="M684.31,1060.74H117.94c-14.6,0-26.43-11.84-26.43-26.43v-867.4c0-14.6,11.84-26.43,26.43-26.43h566.37
		c14.6,0,26.43,11.84,26.43,26.43v867.4C710.75,1048.91,698.91,1060.74,684.31,1060.74z"/>
	<path class="st2" d="M743.76,1233.59H56.24c-14.59,0-26.41-11.83-26.41-26.41V212.5c0-14.59,11.83-26.41,26.41-26.41h687.52
		c14.59,0,26.41,11.83,26.41,26.41v994.67C770.17,1221.76,758.35,1233.59,743.76,1233.59z"/>
</g>
<g>
	<path class="st3" d="M357.41,278.96V329h-8.21v-34.27L333.94,329h-5.69l-15.34-34.27V329h-8.21v-50.04h8.86l17.57,39.24l17.5-39.24
		H357.41z"/>
	<path class="st3" d="M404.29,312.22h-30.31c0.24,3.17,1.42,5.71,3.53,7.63c2.11,1.92,4.7,2.88,7.78,2.88
		c4.42,0,7.54-1.85,9.36-5.54h8.86c-1.2,3.65-3.37,6.64-6.52,8.96c-3.14,2.33-7.04,3.49-11.7,3.49c-3.79,0-7.19-0.85-10.19-2.56
		c-3-1.7-5.35-4.1-7.06-7.2c-1.7-3.1-2.56-6.68-2.56-10.76c0-4.08,0.83-7.67,2.48-10.76c1.66-3.1,3.98-5.48,6.98-7.16
		c3-1.68,6.44-2.52,10.33-2.52c3.74,0,7.08,0.82,10.01,2.45c2.93,1.63,5.21,3.92,6.84,6.88c1.63,2.95,2.45,6.35,2.45,10.19
		C404.57,309.68,404.48,311.02,404.29,312.22z M396,305.6c-0.05-3.02-1.13-5.45-3.24-7.27c-2.11-1.82-4.73-2.74-7.85-2.74
		c-2.83,0-5.26,0.9-7.27,2.7s-3.22,4.24-3.6,7.31H396z"/>
	<path class="st3" d="M441.04,290.62c2.47,1.3,4.4,3.22,5.8,5.76c1.39,2.54,2.09,5.62,2.09,9.22V329h-8.14v-22.18
		c0-3.55-0.89-6.28-2.66-8.17c-1.78-1.9-4.2-2.84-7.27-2.84c-3.07,0-5.51,0.95-7.31,2.84c-1.8,1.9-2.7,4.62-2.7,8.17V329h-8.21
		v-39.67h8.21v4.54c1.34-1.63,3.06-2.9,5.15-3.82c2.09-0.91,4.31-1.37,6.66-1.37C435.77,288.68,438.57,289.33,441.04,290.62z"/>
	<path class="st3" d="M495.29,289.33V329h-8.21v-4.68c-1.3,1.63-2.99,2.92-5.08,3.85s-4.31,1.4-6.66,1.4
		c-3.12,0-5.92-0.65-8.39-1.94c-2.47-1.3-4.42-3.21-5.83-5.76c-1.42-2.54-2.12-5.62-2.12-9.22v-23.33h8.14v22.1
		c0,3.55,0.89,6.28,2.66,8.17c1.78,1.9,4.2,2.84,7.27,2.84c3.07,0,5.51-0.95,7.31-2.84c1.8-1.9,2.7-4.62,2.7-8.17v-22.1H495.29z
		 M468.11,283.1c-0.84-0.84-1.26-1.86-1.26-3.06c0-1.2,0.42-2.22,1.26-3.06c0.84-0.84,1.86-1.26,3.06-1.26
		c1.2,0,2.22,0.42,3.06,1.26c0.84,0.84,1.26,1.86,1.26,3.06c0,1.2-0.42,2.22-1.26,3.06c-0.84,0.84-1.86,1.26-3.06,1.26
		C469.97,284.36,468.95,283.94,468.11,283.1z M480.5,283.1c-0.84-0.84-1.26-1.86-1.26-3.06c0-1.2,0.42-2.22,1.26-3.06
		c0.84-0.84,1.86-1.26,3.06-1.26c1.2,0,2.22,0.42,3.06,1.26c0.84,0.84,1.26,1.86,1.26,3.06c0,1.2-0.42,2.22-1.26,3.06
		c-0.84,0.84-1.86,1.26-3.06,1.26C482.35,284.36,481.33,283.94,480.5,283.1z"/>
</g>
<g>
	<path class="st3" d="M120.75,452.66c-0.69,4.69-4.19,6.37-8.38,6.37h-8.75l3.3-23.43h8.78c2.61,0,4.69,1.16,5.35,3.33
		c0.17,0.43,0.23,0.92,0.23,1.48c0,0.3-0.03,0.63-0.07,0.99c-0.23,1.85-1.22,3.8-3.07,4.82l-1.02,0.4l1.06,0.23
		c1.95,0.79,2.67,2.48,2.67,4.13c0.03,0.07,0.03,0.13,0.03,0.2C120.88,451.67,120.84,452.17,120.75,452.66z M112.92,457.75
		c0.76,0,1.48-0.07,2.18-0.2c2.31-0.53,3.99-1.98,4.39-4.92c0.07-0.43,0.1-0.79,0.1-1.16c0-1.35-0.4-2.38-1.19-3.04
		c-0.96-0.83-2.38-1.22-4.19-1.22h-0.13h-7.49l-1.49,10.53h7.49H112.92z M114.24,446.06c2.94,0,5.31-1.42,5.74-4.62
		c0.03-0.3,0.07-0.56,0.07-0.83c0-0.43-0.07-0.86-0.2-1.22c-0.53-1.72-2.18-2.61-4.32-2.61h-7.49l-1.29,9.28H114.24z"/>
	<path class="st3" d="M124.64,454.12l1.72-12.21h1.19l-1.72,12.21c-0.03,0.23-0.07,0.43-0.07,0.66c0,0.43,0.07,0.79,0.23,1.12
		c0.66,1.52,2.28,2.21,4.09,2.21c1.88,0,3.99-0.5,5.21-0.99l2.11-15.22h1.19l-2.24,16.17c-2.11,0.69-4.29,1.25-6.44,1.25
		c-2.28-0.07-4.29-0.99-5.08-2.97c-0.17-0.43-0.26-0.89-0.26-1.42C124.57,454.68,124.6,454.41,124.64,454.12z"/>
	<path class="st3" d="M149.12,441.64c0.33,0,0.69,0.03,1.09,0.07l-0.17,1.16c-0.76-0.1-1.39-0.1-2.15,0.07
		c-1.88,0.43-3.66,1.68-3.96,3.93L142.26,459h-1.19l1.68-12.15c0.36-2.81,2.64-4.59,5.21-5.12c0.36-0.1,0.73-0.13,1.02-0.13
		C149.02,441.61,149.09,441.61,149.12,441.64z"/>
	<path class="st3" d="M150.97,456.56c-0.17-0.43-0.26-0.92-0.26-1.49c0-0.26,0.03-0.56,0.07-0.86l1.02-7.33
		c0.53-3.99,3.99-5.28,7.36-5.28c2.11,0,4.09,0.4,5.54,1.09l-2.28,16.3h-1.12l0.23-1.82c-1.55,1.49-3.5,2.15-5.48,2.15
		C153.84,459.33,151.76,458.5,150.97,456.56z M152.95,446.85l-1.02,7.36c-0.03,0.23-0.07,0.49-0.07,0.73c0,0.43,0.07,0.79,0.23,1.12
		c0.59,1.55,2.31,2.18,4.16,2.18c1.98,0,4.03-0.89,5.45-2.31l1.72-12.38c-1.09-0.56-2.67-0.86-4.26-0.86
		C156.35,442.7,153.38,443.79,152.95,446.85z"/>
	<path class="st3" d="M167.54,464.15l0.86-0.73c1.02,0.92,2.58,1.42,4.19,1.42c2.51,0,5.05-1.16,5.48-3.89l0.43-2.84
		c-1.88,0.89-3.53,1.22-5.08,1.22c-2.31,0-4.46-0.99-5.18-2.9c-0.2-0.46-0.3-0.96-0.3-1.52c0-0.23,0.03-0.5,0.07-0.76l1.68-12.21
		h1.19l-1.68,12.21c-0.03,0.23-0.03,0.43-0.03,0.59c0,0.43,0.07,0.83,0.2,1.19c0.59,1.52,2.18,2.31,4.12,2.31
		c2.11,0,3.07-0.4,5.18-1.29l2.08-15.02h1.16l-2.67,18.98c-0.53,3.53-3.66,5.05-6.73,5.05
		C170.51,465.96,168.62,465.34,167.54,464.15z"/>
	<path class="st3" d="M185.03,456.56c-0.17-0.43-0.26-0.92-0.26-1.49c0-0.26,0.03-0.56,0.07-0.86l1.02-7.33
		c0.53-3.99,3.99-5.28,7.36-5.28c2.11,0,4.09,0.4,5.54,1.09l-2.28,16.3h-1.12l0.23-1.82c-1.55,1.49-3.5,2.15-5.48,2.15
		C187.9,459.33,185.82,458.5,185.03,456.56z M187.01,446.85l-1.02,7.36c-0.03,0.23-0.07,0.49-0.07,0.73c0,0.43,0.07,0.79,0.23,1.12
		c0.59,1.55,2.31,2.18,4.16,2.18c1.98,0,4.03-0.89,5.45-2.31l1.72-12.38c-1.09-0.56-2.67-0.86-4.26-0.86
		C190.41,442.7,187.44,443.79,187.01,446.85z"/>
	<path class="st3" d="M219.61,460.95l0.46-2.84c-1.88,0.89-3.53,1.22-5.08,1.22c-2.38,0-4.39-0.99-5.18-2.9
		c-0.17-0.46-0.26-0.96-0.26-1.52c0-0.23,0.03-0.5,0.07-0.76l1.02-7.43c0.43-3.4,3.73-5.15,6.7-5.15c2.28,0,3.89,0.5,6.04,1.25
		l-2.61,18.09c-0.53,3.53-3.66,5.05-6.73,5.05c-1.98,0-3.86-0.63-4.95-1.82l0.76-0.76c1.02,0.92,2.71,1.45,4.29,1.45
		C216.8,464.84,219.18,463.69,219.61,460.95z M211.82,446.69l-1.02,7.46c-0.03,0.23-0.03,0.43-0.03,0.59c0,0.43,0.07,0.83,0.2,1.19
		c0.59,1.52,2.18,2.28,4.09,2.28c2.08,0,3.1-0.33,5.18-1.29l1.85-13.2c-1.09-0.5-3.04-0.99-4.92-0.99
		C214.73,442.73,212.18,444.05,211.82,446.69z"/>
	<path class="st3" d="M227.26,459h-1.22l2.38-17.1h1.22L227.26,459z M230.47,437.25c0.17,0.17,0.23,0.4,0.23,0.63v0.17
		c-0.1,0.63-0.63,1.12-1.25,1.12c-0.3,0-0.56-0.1-0.76-0.33c-0.17-0.17-0.23-0.4-0.23-0.63c0-0.36,0.13-0.69,0.43-0.96
		c0.26-0.23,0.56-0.33,0.86-0.33S230.3,437.02,230.47,437.25z"/>
	<path class="st3" d="M240.27,441.64c0.33,0,0.69,0.03,1.09,0.07l-0.17,1.16c-0.76-0.1-1.39-0.1-2.14,0.07
		c-1.88,0.43-3.66,1.68-3.96,3.93L233.4,459h-1.19l1.68-12.15c0.36-2.81,2.64-4.59,5.21-5.12c0.36-0.1,0.73-0.13,1.02-0.13
		C240.17,441.61,240.23,441.61,240.27,441.64z"/>
	<path class="st3" d="M243.17,456.03c0.66,1.52,2.41,2.21,4.26,2.21c1.85,0,3.8-0.69,4.85-2.18l0.89,0.5
		c-1.29,1.82-3.66,2.77-5.88,2.77c-2.34,0-4.42-0.92-5.21-2.9c-0.17-0.43-0.26-0.89-0.26-1.45c0-0.26,0.03-0.53,0.07-0.83l0.99-7.23
		c0.53-3.6,3.8-5.35,6.9-5.35c2.31,0,4.36,0.92,5.15,2.91c0.17,0.43,0.26,0.92,0.26,1.45c0,0.3-0.03,0.56-0.07,0.86
		c-0.53,3.7-3.8,5.51-7,5.51c-1.55,0-3.17-0.33-4.72-1.09l-0.43,2.97c-0.03,0.23-0.07,0.46-0.07,0.66
		C242.91,455.27,243.01,455.67,243.17,456.03z M254,446.79c0.03-0.23,0.03-0.43,0.03-0.63c0-0.46-0.07-0.86-0.2-1.22
		c-0.59-1.62-2.31-2.34-4.19-2.34c-2.51,0-5.28,1.39-5.64,4.29l-0.46,3.3c1.32,0.56,3.2,1.06,4.88,1.06
		C251.03,451.24,253.57,449.96,254,446.79z"/>
	<path class="st3" d="M259.8,446.72l-0.99,7.39c-0.03,0.2-0.03,0.4-0.03,0.59c0,0.46,0.07,0.86,0.23,1.22
		c0.59,1.52,2.31,2.21,4.19,2.21c1.98,0,4.06-0.83,5.02-2.51l1.02,0.53c-1.29,2.08-3.8,3.17-6.21,3.17c-2.31,0-4.39-0.99-5.18-2.9
		c-0.17-0.46-0.26-0.99-0.26-1.55c0-0.23,0-0.5,0.03-0.76l0.99-7.33c0.43-3.5,3.86-5.21,6.87-5.21c2.15,0,4.19,0.79,5.02,2.51
		l-1.02,0.63c-0.76-1.32-2.34-1.95-4.16-1.95C262.84,442.76,260.17,443.98,259.8,446.72z"/>
	<path class="st3" d="M273.93,456.03c0.66,1.52,2.41,2.21,4.26,2.21c1.85,0,3.8-0.69,4.85-2.18l0.89,0.5
		c-1.29,1.82-3.66,2.77-5.88,2.77c-2.34,0-4.42-0.92-5.21-2.9c-0.17-0.43-0.26-0.89-0.26-1.45c0-0.26,0.03-0.53,0.07-0.83l0.99-7.23
		c0.53-3.6,3.8-5.35,6.9-5.35c2.31,0,4.36,0.92,5.15,2.91c0.17,0.43,0.26,0.92,0.26,1.45c0,0.3-0.03,0.56-0.07,0.86
		c-0.53,3.7-3.8,5.51-7,5.51c-1.55,0-3.17-0.33-4.72-1.09l-0.43,2.97c-0.03,0.23-0.07,0.46-0.07,0.66
		C273.66,455.27,273.76,455.67,273.93,456.03z M284.75,446.79c0.03-0.23,0.03-0.43,0.03-0.63c0-0.46-0.07-0.86-0.2-1.22
		c-0.59-1.62-2.31-2.34-4.19-2.34c-2.51,0-5.28,1.39-5.64,4.29l-0.46,3.3c1.32,0.56,3.2,1.06,4.88,1.06
		C281.78,451.24,284.32,449.96,284.75,446.79z"/>
	<path class="st3" d="M298.45,460.95l0.46-2.84c-1.88,0.89-3.53,1.22-5.08,1.22c-2.38,0-4.39-0.99-5.18-2.9
		c-0.17-0.46-0.26-0.96-0.26-1.52c0-0.23,0.03-0.5,0.07-0.76l1.02-7.43c0.43-3.4,3.73-5.15,6.7-5.15c2.28,0,3.89,0.5,6.04,1.25
		l-2.61,18.09c-0.53,3.53-3.66,5.05-6.73,5.05c-1.98,0-3.86-0.63-4.95-1.82l0.76-0.76c1.02,0.92,2.71,1.45,4.29,1.45
		C295.64,464.84,298.02,463.69,298.45,460.95z M290.66,446.69l-1.02,7.46c-0.03,0.23-0.03,0.43-0.03,0.59c0,0.43,0.07,0.83,0.2,1.19
		c0.59,1.52,2.18,2.28,4.09,2.28c2.08,0,3.1-0.33,5.18-1.29l1.85-13.2c-1.09-0.5-3.04-0.99-4.92-0.99
		C293.56,442.73,291.02,444.05,290.66,446.69z M294.55,438.77c-0.5-0.59-0.76-1.29-0.76-2.11c0-0.17,0-0.3,0.03-0.46h1.22
		c-0.03,0.17-0.03,0.3-0.03,0.43c0,0.53,0.17,0.99,0.46,1.35c0.4,0.49,0.96,0.73,1.72,0.73c1.68,0,2.97-1.09,3.1-2.51h1.22
		c-0.3,2.01-1.98,3.66-4.39,3.66C296,439.86,295.15,439.49,294.55,438.77z"/>
	<path class="st3" d="M306.43,456.03c0.66,1.52,2.41,2.21,4.26,2.21c1.85,0,3.79-0.69,4.85-2.18l0.89,0.5
		c-1.29,1.82-3.66,2.77-5.87,2.77c-2.34,0-4.42-0.92-5.21-2.9c-0.17-0.43-0.26-0.89-0.26-1.45c0-0.26,0.03-0.53,0.07-0.83l0.99-7.23
		c0.53-3.6,3.79-5.35,6.9-5.35c2.31,0,4.36,0.92,5.15,2.91c0.17,0.43,0.26,0.92,0.26,1.45c0,0.3-0.03,0.56-0.07,0.86
		c-0.53,3.7-3.79,5.51-7,5.51c-1.55,0-3.17-0.33-4.72-1.09l-0.43,2.97c-0.03,0.23-0.07,0.46-0.07,0.66
		C306.17,455.27,306.27,455.67,306.43,456.03z M317.26,446.79c0.03-0.23,0.03-0.43,0.03-0.63c0-0.46-0.07-0.86-0.2-1.22
		c-0.59-1.62-2.31-2.34-4.19-2.34c-2.51,0-5.28,1.39-5.64,4.29l-0.46,3.3c1.32,0.56,3.2,1.06,4.88,1.06
		C314.29,451.24,316.83,449.96,317.26,446.79z"/>
	<path class="st3" d="M334.58,446.79L332.87,459h-1.19l1.72-12.21c0.03-0.2,0.03-0.4,0.03-0.59c0-0.43-0.07-0.83-0.2-1.19
		c-0.66-1.52-2.28-2.21-4.09-2.21c-1.88,0-3.93,0.49-5.21,0.99L321.81,459h-1.19l2.28-16.17c2.08-0.69,4.26-1.25,6.4-1.25
		c2.28,0.07,4.32,0.99,5.12,2.97c0.17,0.43,0.23,0.89,0.23,1.39C334.65,446.23,334.61,446.49,334.58,446.79z"/>
	<path class="st3" d="M339,459h-1.22l2.38-17.1h1.22L339,459z M342.2,437.25c0.17,0.17,0.23,0.4,0.23,0.63v0.17
		c-0.1,0.63-0.63,1.12-1.25,1.12c-0.3,0-0.56-0.1-0.76-0.33c-0.17-0.17-0.23-0.4-0.23-0.63c0-0.36,0.13-0.69,0.43-0.96
		c0.26-0.23,0.56-0.33,0.86-0.33S342.04,437.02,342.2,437.25z"/>
	<path class="st3" d="M345.57,441.9h11.42l0.4,0.79l-13.07,15.15h10.76l-0.13,1.16h-11.75l-0.53-0.92l13.04-15.05h-10.26
		L345.57,441.9z"/>
	<path class="st3" d="M367.25,454.25l2.58-18.61h1.19l-2.57,18.61c-0.03,0.36-0.07,0.73-0.07,1.02c0,0.76,0.13,1.39,0.43,1.88
		c0.43,0.66,1.25,0.99,2.44,0.99l-0.17,1.19c-1.45-0.03-2.51-0.5-3.2-1.32c-0.5-0.63-0.73-1.49-0.73-2.54
		C367.15,455.11,367.18,454.68,367.25,454.25z"/>
	<path class="st3" d="M375.1,459h-1.22l2.38-17.1h1.22L375.1,459z M378.3,437.25c0.17,0.17,0.23,0.4,0.23,0.63v0.17
		c-0.1,0.63-0.63,1.12-1.25,1.12c-0.3,0-0.56-0.1-0.76-0.33c-0.17-0.17-0.23-0.4-0.23-0.63c0-0.36,0.13-0.69,0.43-0.96
		c0.26-0.23,0.56-0.33,0.86-0.33S378.14,437.02,378.3,437.25z"/>
	<path class="st3" d="M394.08,446.79L392.36,459h-1.19l1.72-12.21c0.03-0.2,0.03-0.4,0.03-0.59c0-0.43-0.07-0.83-0.2-1.19
		c-0.66-1.52-2.28-2.21-4.09-2.21c-1.88,0-3.93,0.49-5.21,0.99L381.31,459h-1.19l2.28-16.17c2.08-0.69,4.26-1.25,6.4-1.25
		c2.28,0.07,4.32,0.99,5.12,2.97c0.17,0.43,0.23,0.89,0.23,1.39C394.14,446.23,394.11,446.49,394.08,446.79z"/>
	<path class="st3" d="M399.52,451.71l10.86-9.8h1.45l-8.45,7.69l6.07,9.41h-1.42l-5.61-8.55l-3.13,2.74L398.5,459h-1.19l3.27-23.37
		h1.19L399.52,451.71z"/>
	<path class="st3" d="M413.35,454.25l2.57-18.61h1.19l-2.57,18.61c-0.03,0.36-0.07,0.73-0.07,1.02c0,0.76,0.13,1.39,0.43,1.88
		c0.43,0.66,1.25,0.99,2.44,0.99l-0.17,1.19c-1.45-0.03-2.51-0.5-3.2-1.32c-0.5-0.63-0.73-1.49-0.73-2.54
		C413.25,455.11,413.28,454.68,413.35,454.25z"/>
	<path class="st3" d="M421.53,456.03c0.66,1.52,2.41,2.21,4.26,2.21c1.85,0,3.79-0.69,4.85-2.18l0.89,0.5
		c-1.29,1.82-3.66,2.77-5.87,2.77c-2.34,0-4.42-0.92-5.21-2.9c-0.17-0.43-0.26-0.89-0.26-1.45c0-0.26,0.03-0.53,0.07-0.83l0.99-7.23
		c0.53-3.6,3.79-5.35,6.9-5.35c2.31,0,4.36,0.92,5.15,2.91c0.17,0.43,0.26,0.92,0.26,1.45c0,0.3-0.03,0.56-0.07,0.86
		c-0.53,3.7-3.79,5.51-7,5.51c-1.55,0-3.17-0.33-4.72-1.09l-0.43,2.97c-0.03,0.23-0.07,0.46-0.07,0.66
		C421.27,455.27,421.37,455.67,421.53,456.03z M432.36,446.79c0.03-0.23,0.03-0.43,0.03-0.63c0-0.46-0.07-0.86-0.2-1.22
		c-0.59-1.62-2.31-2.34-4.19-2.34c-2.51,0-5.28,1.39-5.64,4.29l-0.46,3.3c1.32,0.56,3.2,1.06,4.88,1.06
		C429.39,451.24,431.93,449.96,432.36,446.79z"/>
	<path class="st3" d="M443.71,441.64c0.33,0,0.69,0.03,1.09,0.07l-0.17,1.16c-0.76-0.1-1.39-0.1-2.14,0.07
		c-1.88,0.43-3.66,1.68-3.96,3.93L436.84,459h-1.19l1.68-12.15c0.36-2.81,2.64-4.59,5.21-5.12c0.36-0.1,0.73-0.13,1.02-0.13
		C443.61,441.61,443.68,441.61,443.71,441.64z"/>
	<path class="st3" d="M454.9,451.71l10.86-9.8h1.45l-8.45,7.69l6.07,9.41h-1.42l-5.61-8.55l-3.14,2.74l-0.79,5.81h-1.19l3.27-23.37
		h1.19L454.9,451.71z"/>
	<path class="st3" d="M468.72,454.12l1.72-12.21h1.19l-1.72,12.21c-0.03,0.23-0.07,0.43-0.07,0.66c0,0.43,0.07,0.79,0.23,1.12
		c0.66,1.52,2.28,2.21,4.09,2.21c1.88,0,3.99-0.5,5.21-0.99l2.11-15.22h1.19l-2.24,16.17c-2.11,0.69-4.29,1.25-6.44,1.25
		c-2.28-0.07-4.29-0.99-5.08-2.97c-0.17-0.43-0.26-0.89-0.26-1.42C468.66,454.68,468.69,454.41,468.72,454.12z"/>
	<path class="st3" d="M485.85,454.25l2.57-18.61h1.19l-2.57,18.61c-0.03,0.36-0.07,0.73-0.07,1.02c0,0.76,0.13,1.39,0.43,1.88
		c0.43,0.66,1.25,0.99,2.44,0.99l-0.17,1.19c-1.45-0.03-2.51-0.5-3.2-1.32c-0.5-0.63-0.73-1.49-0.73-2.54
		C485.75,455.11,485.78,454.68,485.85,454.25z"/>
	<path class="st3" d="M493.08,454.25l2.58-18.61h1.19l-2.57,18.61c-0.03,0.36-0.07,0.73-0.07,1.02c0,0.76,0.13,1.39,0.43,1.88
		c0.43,0.66,1.25,0.99,2.44,0.99l-0.17,1.19c-1.45-0.03-2.51-0.5-3.2-1.32c-0.5-0.63-0.73-1.49-0.73-2.54
		C492.98,455.11,493.01,454.68,493.08,454.25z"/>
	<path class="st3" d="M500.2,456.56c-0.17-0.43-0.26-0.92-0.26-1.49c0-0.26,0.03-0.56,0.07-0.86l1.02-7.33
		c0.53-3.99,3.99-5.28,7.36-5.28c2.11,0,4.09,0.4,5.54,1.09l-2.28,16.3h-1.12l0.23-1.82c-1.55,1.49-3.5,2.15-5.48,2.15
		C503.07,459.33,501,458.5,500.2,456.56z M502.18,446.85l-1.02,7.36c-0.03,0.23-0.07,0.49-0.07,0.73c0,0.43,0.07,0.79,0.23,1.12
		c0.59,1.55,2.31,2.18,4.16,2.18c1.98,0,4.03-0.89,5.45-2.31l1.72-12.38c-1.09-0.56-2.67-0.86-4.26-0.86
		C505.58,442.7,502.61,443.79,502.18,446.85z"/>
	<path class="st3" d="M530.56,446.79L528.85,459h-1.19l1.72-12.21c0.03-0.2,0.03-0.4,0.03-0.59c0-0.43-0.07-0.83-0.2-1.19
		c-0.66-1.52-2.28-2.21-4.09-2.21c-1.88,0-3.93,0.49-5.21,0.99L517.79,459h-1.19l2.28-16.17c2.08-0.69,4.26-1.25,6.4-1.25
		c2.28,0.07,4.32,0.99,5.12,2.97c0.17,0.43,0.23,0.89,0.23,1.39C530.63,446.23,530.6,446.49,530.56,446.79z"/>
	<path class="st3" d="M535.02,459h-1.22l2.38-17.1h1.22L535.02,459z"/>
	<path class="st3" d="M542.44,446.72l-0.99,7.39c-0.03,0.2-0.03,0.4-0.03,0.59c0,0.46,0.07,0.86,0.23,1.22
		c0.59,1.52,2.31,2.21,4.19,2.21c1.98,0,4.06-0.83,5.02-2.51l1.02,0.53c-1.29,2.08-3.79,3.17-6.21,3.17c-2.31,0-4.39-0.99-5.18-2.9
		c-0.17-0.46-0.26-0.99-0.26-1.55c0-0.23,0-0.5,0.03-0.76l0.99-7.33c0.43-3.5,3.86-5.21,6.87-5.21c2.14,0,4.19,0.79,5.02,2.51
		l-1.02,0.63c-0.76-1.32-2.34-1.95-4.16-1.95C545.48,442.76,542.81,443.98,542.44,446.72z"/>
	<path class="st3" d="M556.27,459h-1.22l2.38-17.1h1.22L556.27,459z"/>
	<path class="st3" d="M569.4,454.12l0.99-7.33c0.43-3.43,3.83-5.21,6.9-5.21c1.58,0,3.27,0.33,4.85,1.09l0.99-7.03h1.19l-3.17,22.67
		c-2.11,0.63-4.29,1.02-6.44,1.02c-2.28-0.07-4.36-0.99-5.08-2.97c-0.2-0.43-0.3-0.92-0.3-1.48
		C569.34,454.64,569.37,454.38,569.4,454.12z M571.61,446.76l-0.99,7.36c-0.03,0.23-0.03,0.43-0.03,0.59c0,0.43,0.07,0.83,0.2,1.19
		c0.59,1.52,2.18,2.28,4.09,2.28c1.62,0,3.37-0.17,5.21-0.79l1.85-13.53c-1.55-0.76-3.23-1.09-4.85-1.09
		C574.62,442.76,571.98,444.05,571.61,446.76z"/>
	<path class="st3" d="M587.59,456.03c0.66,1.52,2.41,2.21,4.26,2.21c1.85,0,3.79-0.69,4.85-2.18l0.89,0.5
		c-1.29,1.82-3.66,2.77-5.88,2.77c-2.34,0-4.42-0.92-5.21-2.9c-0.17-0.43-0.26-0.89-0.26-1.45c0-0.26,0.03-0.53,0.07-0.83l0.99-7.23
		c0.53-3.6,3.79-5.35,6.9-5.35c2.31,0,4.36,0.92,5.15,2.91c0.17,0.43,0.26,0.92,0.26,1.45c0,0.3-0.03,0.56-0.07,0.86
		c-0.53,3.7-3.79,5.51-7,5.51c-1.55,0-3.17-0.33-4.72-1.09l-0.43,2.97c-0.03,0.23-0.07,0.46-0.07,0.66
		C587.32,455.27,587.42,455.67,587.59,456.03z M598.41,446.79c0.03-0.23,0.03-0.43,0.03-0.63c0-0.46-0.07-0.86-0.2-1.22
		c-0.59-1.62-2.31-2.34-4.19-2.34c-2.51,0-5.28,1.39-5.64,4.29l-0.46,3.3c1.32,0.56,3.2,1.06,4.88,1.06
		C595.44,451.24,597.98,449.96,598.41,446.79z"/>
	<path class="st3" d="M615.74,446.79L614.02,459h-1.19l1.72-12.21c0.03-0.2,0.03-0.4,0.03-0.59c0-0.43-0.07-0.83-0.2-1.19
		c-0.66-1.52-2.28-2.21-4.09-2.21c-1.88,0-3.93,0.49-5.21,0.99L602.96,459h-1.19l2.28-16.17c2.08-0.69,4.26-1.25,6.4-1.25
		c2.28,0.07,4.32,0.99,5.12,2.97c0.17,0.43,0.23,0.89,0.23,1.39C615.8,446.23,615.77,446.49,615.74,446.79z"/>
	<path class="st3" d="M620.49,456.03c0.66,1.52,2.41,2.21,4.26,2.21c1.85,0,3.79-0.69,4.85-2.18l0.89,0.5
		c-1.29,1.82-3.66,2.77-5.88,2.77c-2.34,0-4.42-0.92-5.21-2.9c-0.17-0.43-0.26-0.89-0.26-1.45c0-0.26,0.03-0.53,0.07-0.83l0.99-7.23
		c0.53-3.6,3.79-5.35,6.9-5.35c2.31,0,4.36,0.92,5.15,2.91c0.17,0.43,0.26,0.92,0.26,1.45c0,0.3-0.03,0.56-0.07,0.86
		c-0.53,3.7-3.79,5.51-7,5.51c-1.55,0-3.17-0.33-4.72-1.09l-0.43,2.97c-0.03,0.23-0.07,0.46-0.07,0.66
		C620.22,455.27,620.32,455.67,620.49,456.03z M631.31,446.79c0.03-0.23,0.03-0.43,0.03-0.63c0-0.46-0.07-0.86-0.2-1.22
		c-0.59-1.62-2.31-2.34-4.19-2.34c-2.51,0-5.28,1.39-5.64,4.29l-0.46,3.3c1.32,0.56,3.2,1.06,4.88,1.06
		C628.34,451.24,630.88,449.96,631.31,446.79z"/>
	<path class="st3" d="M634.84,464.15l0.86-0.73c1.02,0.92,2.57,1.42,4.19,1.42c2.51,0,5.05-1.16,5.48-3.89l0.43-2.84
		c-1.88,0.89-3.53,1.22-5.08,1.22c-2.31,0-4.46-0.99-5.18-2.9c-0.2-0.46-0.3-0.96-0.3-1.52c0-0.23,0.03-0.5,0.07-0.76l1.68-12.21
		h1.19l-1.68,12.21c-0.03,0.23-0.03,0.43-0.03,0.59c0,0.43,0.07,0.83,0.2,1.19c0.59,1.52,2.18,2.31,4.13,2.31
		c2.11,0,3.07-0.4,5.18-1.29l2.08-15.02h1.16l-2.67,18.98c-0.53,3.53-3.66,5.05-6.73,5.05
		C637.81,465.96,635.93,465.34,634.84,464.15z"/>
	<path class="st3" d="M653.06,459h-1.22l2.38-17.1h1.22L653.06,459z M656.26,437.25c0.17,0.17,0.23,0.4,0.23,0.63v0.17
		c-0.1,0.63-0.63,1.12-1.25,1.12c-0.3,0-0.56-0.1-0.76-0.33c-0.17-0.17-0.23-0.4-0.23-0.63c0-0.36,0.13-0.69,0.43-0.96
		c0.26-0.23,0.56-0.33,0.86-0.33C655.83,436.92,656.09,437.02,656.26,437.25z"/>
	<path class="st3" d="M671.01,443.95c1.82-1.88,3.4-2.28,5.21-2.38h0.23c0.73,0,1.42,0.1,2.08,0.26c1.42,0.43,2.41,1.35,2.9,2.71
		c0.13,0.46,0.2,0.96,0.2,1.45c0,0.3-0.03,0.63-0.07,0.96L679.89,459h-1.22l1.65-11.98c0.07-0.33,0.1-0.63,0.1-0.92
		c0-0.53-0.1-0.99-0.33-1.39c-0.69-1.22-2.05-1.88-3.66-1.91h-0.17c-0.76,0-1.45,0.13-2.15,0.36c-1.45,0.49-2.64,1.55-2.87,3.13
		L669.46,459h-1.15l1.78-12.71c0.03-0.17,0.03-0.3,0.03-0.46c0-0.69-0.26-1.29-0.76-1.75c-0.63-0.53-1.39-0.89-2.31-1.09
		c-0.56-0.1-1.12-0.16-1.68-0.16c-0.43,0-0.86,0.03-1.29,0.07c-1.02,0.17-1.92,0.43-2.64,0.86L659.29,459h-1.22l2.25-16.04
		c1.55-1.02,3.6-1.39,5.54-1.39C667.94,441.57,669.72,442,671.01,443.95z"/>
	<path class="st3" d="M686.02,459h-1.22l2.38-17.1h1.22L686.02,459z M689.22,437.25c0.17,0.17,0.23,0.4,0.23,0.63v0.17
		c-0.1,0.63-0.63,1.12-1.25,1.12c-0.3,0-0.56-0.1-0.76-0.33c-0.17-0.17-0.23-0.4-0.23-0.63c0-0.36,0.13-0.69,0.43-0.96
		c0.26-0.23,0.56-0.33,0.86-0.33C688.8,436.92,689.06,437.02,689.22,437.25z"/>
	<path class="st3" d="M191.28,496.16c-0.17-0.43-0.26-0.92-0.26-1.49c0-0.26,0.03-0.56,0.07-0.86l1.02-7.33
		c0.53-3.99,3.99-5.28,7.36-5.28c2.11,0,4.09,0.4,5.54,1.09l-2.28,16.3h-1.12l0.23-1.81c-1.55,1.48-3.5,2.14-5.48,2.14
		C194.15,498.93,192.07,498.11,191.28,496.16z M193.26,486.45l-1.02,7.36c-0.03,0.23-0.07,0.5-0.07,0.73c0,0.43,0.07,0.79,0.23,1.12
		c0.59,1.55,2.31,2.18,4.16,2.18c1.98,0,4.03-0.89,5.45-2.31l1.72-12.38c-1.09-0.56-2.67-0.86-4.26-0.86
		C196.66,482.3,193.69,483.38,193.26,486.45z"/>
	<path class="st3" d="M209.33,495.53c0.59,1.52,2.31,2.21,4.19,2.21c1.98,0,4.06-0.83,5.02-2.51l1.02,0.53
		c-1.06,1.68-2.97,2.77-4.98,3.07l-1.02,1.85c0.83,0,1.48,0.23,1.91,0.69c0.26,0.3,0.4,0.66,0.4,1.09c0,0.23-0.03,0.46-0.13,0.76
		c-0.56,1.68-1.95,2.21-3.37,2.21c-1.22,0-2.05-0.36-2.71-0.86l0.33-0.92c0.76,0.49,1.45,0.79,2.34,0.79c0.89,0,1.78-0.23,2.18-1.29
		c0.53-1.62-1.19-1.75-2.24-1.48l-0.17-0.26l1.42-2.48h-0.17c-2.31,0-4.39-0.99-5.18-2.9c-0.17-0.46-0.26-0.99-0.26-1.55
		c0-0.23,0-0.5,0.03-0.76l0.99-7.33c0.43-3.5,3.86-5.21,6.87-5.21c2.15,0,4.19,0.79,5.02,2.51l-1.02,0.63
		c-0.76-1.32-2.34-1.95-4.16-1.95c-2.48,0-5.15,1.22-5.51,3.96l-0.99,7.39c-0.03,0.2-0.03,0.4-0.03,0.59
		C209.1,494.77,209.17,495.17,209.33,495.53z"/>
	<path class="st3" d="M223.95,498.6h-1.22l2.38-17.1h1.22L223.95,498.6z"/>
	<path class="st3" d="M234.18,497.84c1.78,0,4.36-1.19,4.72-3.66c0.03-0.2,0.03-0.4,0.03-0.56c0-0.4-0.07-0.76-0.2-1.06
		c-0.59-1.32-2.18-1.88-3.6-2.15c-1.95-0.33-3.96-0.99-4.75-2.58c-0.17-0.4-0.26-0.86-0.26-1.35c0-0.23,0-0.46,0.03-0.69
		c0.33-2.64,2.44-4.16,4.72-4.52c0.46-0.1,0.92-0.13,1.35-0.13c0.3,0,0.59,0.03,0.89,0.07c1.49,0.16,2.84,0.76,3.63,1.78l-0.86,0.86
		c-0.5-0.63-1.16-1.06-2.05-1.32c-0.56-0.17-1.12-0.26-1.68-0.26c-0.33,0-0.66,0.03-0.96,0.1c-1.82,0.26-3.43,1.42-3.79,3.43
		c-0.03,0.16-0.03,0.33-0.03,0.49c0,0.46,0.1,0.86,0.26,1.16c0.83,1.25,2.48,1.55,3.86,1.82c1.88,0.33,3.66,1.16,4.32,2.87
		c0.17,0.43,0.23,0.89,0.23,1.39c0,0.23,0,0.43-0.03,0.66c-0.43,3.07-3.27,4.65-5.97,4.75h-0.3c-1.16,0-2.18-0.23-3.1-0.73
		c-0.99-0.53-1.78-1.32-2.34-2.38l1.06-0.63c0.56,0.96,1.25,1.62,2.08,2.05c0.76,0.4,1.62,0.59,2.57,0.59H234.18z"/>
	<path class="st3" d="M244.57,498.6h-1.22l2.38-17.1h1.22L244.57,498.6z"/>
	<path class="st3" d="M263.52,486.39l-1.72,12.21h-1.19l1.72-12.21c0.03-0.2,0.03-0.4,0.03-0.59c0-0.43-0.07-0.83-0.2-1.19
		c-0.66-1.52-2.28-2.21-4.09-2.21c-1.88,0-3.93,0.5-5.21,0.99l-2.11,15.21h-1.19l2.28-16.17c2.08-0.69,4.26-1.25,6.4-1.25
		c2.28,0.07,4.32,0.99,5.12,2.97c0.17,0.43,0.23,0.89,0.23,1.39C263.58,485.83,263.55,486.09,263.52,486.39z"/>
	<path class="st3" d="M266.98,493.71l0.99-7.33c0.43-3.43,3.83-5.21,6.9-5.21c1.58,0,3.27,0.33,4.85,1.09l0.99-7.03h1.19
		l-3.17,22.67c-2.11,0.63-4.29,1.02-6.44,1.02c-2.28-0.07-4.36-0.99-5.08-2.97c-0.2-0.43-0.3-0.92-0.3-1.49
		C266.91,494.24,266.95,493.98,266.98,493.71z M269.19,486.36l-0.99,7.36c-0.03,0.23-0.03,0.43-0.03,0.59c0,0.43,0.07,0.83,0.2,1.19
		c0.59,1.52,2.18,2.28,4.09,2.28c1.62,0,3.37-0.17,5.21-0.79l1.85-13.53c-1.55-0.76-3.23-1.09-4.85-1.09
		C272.19,482.36,269.55,483.65,269.19,486.36z"/>
	<path class="st3" d="M284.11,496.16c-0.17-0.43-0.26-0.92-0.26-1.49c0-0.26,0.03-0.56,0.07-0.86l1.02-7.33
		c0.53-3.99,3.99-5.28,7.36-5.28c2.11,0,4.09,0.4,5.54,1.09l-2.28,16.3h-1.12l0.23-1.81c-1.55,1.48-3.5,2.14-5.48,2.14
		C286.98,498.93,284.9,498.11,284.11,496.16z M286.09,486.45l-1.02,7.36c-0.03,0.23-0.07,0.5-0.07,0.73c0,0.43,0.07,0.79,0.23,1.12
		c0.59,1.55,2.31,2.18,4.16,2.18c1.98,0,4.03-0.89,5.45-2.31l1.72-12.38c-1.09-0.56-2.67-0.86-4.26-0.86
		C289.49,482.3,286.52,483.38,286.09,486.45z"/>
	<path class="st3" d="M314.47,486.39l-1.72,12.21h-1.19l1.72-12.21c0.03-0.2,0.03-0.4,0.03-0.59c0-0.43-0.07-0.83-0.2-1.19
		c-0.66-1.52-2.28-2.21-4.09-2.21c-1.88,0-3.93,0.5-5.21,0.99l-2.11,15.21h-1.19l2.28-16.17c2.08-0.69,4.26-1.25,6.4-1.25
		c2.28,0.07,4.32,0.99,5.12,2.97c0.17,0.43,0.23,0.89,0.23,1.39C314.53,485.83,314.5,486.09,314.47,486.39z"/>
	<path class="st3" d="M338.82,484.14c0.17,0.43,0.26,0.96,0.26,1.52c0,0.23,0,0.5-0.03,0.76l-0.99,7.26
		c-0.43,3.5-3.83,5.25-6.9,5.25c-2.31,0-4.39-0.99-5.18-2.97c-0.17-0.43-0.26-0.96-0.26-1.52c0-0.23,0-0.5,0.03-0.76l0.99-7.26
		c0.43-3.5,3.86-5.25,6.9-5.25C336.02,481.17,338.03,482.16,338.82,484.14z M327.93,486.42l-0.99,7.26
		c-0.03,0.23-0.07,0.46-0.07,0.66c0,0.43,0.07,0.83,0.23,1.16c0.66,1.58,2.41,2.24,4.22,2.24c2.41,0,5.12-1.22,5.54-4.06l0.99-7.26
		c0.03-0.2,0.03-0.4,0.03-0.59c0-0.46-0.07-0.86-0.23-1.22c-0.66-1.52-2.34-2.21-4.19-2.21
		C331.13,482.39,328.29,483.62,327.93,486.42z M332.25,477.44c-0.1,0.53-0.56,0.99-1.12,0.99c-0.53,0-0.96-0.46-0.86-0.99
		c0.1-0.56,0.59-0.99,1.12-0.99C331.96,476.45,332.35,476.88,332.25,477.44z M338.03,477.44c-0.1,0.53-0.59,0.99-1.12,0.99
		c-0.56,0-0.96-0.46-0.86-0.99c0.1-0.56,0.56-0.99,1.12-0.99C337.7,476.45,338.13,476.88,338.03,477.44z"/>
	<path class="st3" d="M355.82,486.39l-1.72,12.21h-1.19l1.72-12.21c0.03-0.2,0.03-0.4,0.03-0.59c0-0.43-0.07-0.83-0.2-1.19
		c-0.66-1.52-2.28-2.21-4.09-2.21c-1.88,0-3.93,0.5-5.21,0.99l-2.11,15.21h-1.19l2.28-16.17c2.08-0.69,4.26-1.25,6.4-1.25
		c2.28,0.07,4.32,0.99,5.12,2.97c0.17,0.43,0.23,0.89,0.23,1.39C355.88,485.83,355.85,486.09,355.82,486.39z"/>
	<path class="st3" d="M360.57,495.63c0.66,1.52,2.41,2.21,4.26,2.21c1.85,0,3.8-0.69,4.85-2.18l0.89,0.5
		c-1.29,1.81-3.66,2.77-5.88,2.77c-2.34,0-4.42-0.92-5.21-2.9c-0.17-0.43-0.26-0.89-0.26-1.45c0-0.26,0.03-0.53,0.07-0.83l0.99-7.23
		c0.53-3.6,3.8-5.35,6.9-5.35c2.31,0,4.36,0.92,5.15,2.9c0.17,0.43,0.26,0.92,0.26,1.45c0,0.3-0.03,0.56-0.07,0.86
		c-0.53,3.7-3.8,5.51-7,5.51c-1.55,0-3.17-0.33-4.72-1.09l-0.43,2.97c-0.03,0.23-0.07,0.46-0.07,0.66
		C360.3,494.87,360.4,495.27,360.57,495.63z M371.39,486.39c0.03-0.23,0.03-0.43,0.03-0.63c0-0.46-0.07-0.86-0.2-1.22
		c-0.59-1.62-2.31-2.34-4.19-2.34c-2.51,0-5.28,1.39-5.64,4.29l-0.46,3.3c1.32,0.56,3.2,1.06,4.88,1.06
		C368.42,490.84,370.96,489.56,371.39,486.39z"/>
	<path class="st3" d="M387.69,483.55c1.81-1.88,3.4-2.28,5.21-2.38h0.23c0.73,0,1.42,0.1,2.08,0.26c1.42,0.43,2.41,1.35,2.9,2.71
		c0.13,0.46,0.2,0.96,0.2,1.45c0,0.3-0.03,0.63-0.07,0.96l-1.68,12.05h-1.22l1.65-11.98c0.07-0.33,0.1-0.63,0.1-0.92
		c0-0.53-0.1-0.99-0.33-1.39c-0.69-1.22-2.05-1.88-3.66-1.91h-0.17c-0.76,0-1.45,0.13-2.14,0.36c-1.45,0.5-2.64,1.55-2.87,3.13
		l-1.78,12.71h-1.16l1.78-12.71c0.03-0.16,0.03-0.3,0.03-0.46c0-0.69-0.26-1.29-0.76-1.75c-0.63-0.53-1.39-0.89-2.31-1.09
		c-0.56-0.1-1.12-0.17-1.68-0.17c-0.43,0-0.86,0.03-1.29,0.07c-1.02,0.16-1.91,0.43-2.64,0.86l-2.15,15.25h-1.22l2.24-16.04
		c1.55-1.02,3.6-1.39,5.54-1.39C384.62,481.17,386.41,481.6,387.69,483.55z"/>
	<path class="st3" d="M409.83,496.16c-0.17-0.43-0.26-0.92-0.26-1.49c0-0.26,0.03-0.56,0.07-0.86l1.02-7.33
		c0.53-3.99,3.99-5.28,7.36-5.28c2.11,0,4.09,0.4,5.54,1.09l-2.28,16.3h-1.12l0.23-1.81c-1.55,1.48-3.5,2.14-5.48,2.14
		C412.71,498.93,410.63,498.11,409.83,496.16z M411.81,486.45l-1.02,7.36c-0.03,0.23-0.07,0.5-0.07,0.73c0,0.43,0.07,0.79,0.23,1.12
		c0.59,1.55,2.31,2.18,4.16,2.18c1.98,0,4.03-0.89,5.45-2.31l1.72-12.38c-1.09-0.56-2.67-0.86-4.26-0.86
		C415.21,482.3,412.24,483.38,411.81,486.45z"/>
	<path class="st3" d="M434.22,481.24c0.33,0,0.69,0.03,1.09,0.07l-0.17,1.16c-0.76-0.1-1.39-0.1-2.15,0.07
		c-1.88,0.43-3.66,1.68-3.96,3.93l-1.68,12.15h-1.19l1.68-12.15c0.36-2.81,2.64-4.59,5.21-5.12c0.36-0.1,0.73-0.13,1.02-0.13
		C434.12,481.21,434.19,481.21,434.22,481.24z"/>
	<path class="st3" d="M437.49,481.5h11.42l0.4,0.79l-13.07,15.15h10.76l-0.13,1.15h-11.75l-0.53-0.92l13.04-15.05h-10.26
		L437.49,481.5z"/>
	<path class="st3" d="M460.12,495.63c0.66,1.52,2.41,2.21,4.26,2.21c1.85,0,3.8-0.69,4.85-2.18l0.89,0.5
		c-1.29,1.81-3.66,2.77-5.88,2.77c-2.34,0-4.42-0.92-5.21-2.9c-0.17-0.43-0.26-0.89-0.26-1.45c0-0.26,0.03-0.53,0.07-0.83l0.99-7.23
		c0.53-3.6,3.8-5.35,6.9-5.35c2.31,0,4.36,0.92,5.15,2.9c0.17,0.43,0.26,0.92,0.26,1.45c0,0.3-0.03,0.56-0.07,0.86
		c-0.53,3.7-3.8,5.51-7,5.51c-1.55,0-3.17-0.33-4.72-1.09l-0.43,2.97c-0.03,0.23-0.07,0.46-0.07,0.66
		C459.86,494.87,459.96,495.27,460.12,495.63z M470.95,486.39c0.03-0.23,0.03-0.43,0.03-0.63c0-0.46-0.07-0.86-0.2-1.22
		c-0.59-1.62-2.31-2.34-4.19-2.34c-2.51,0-5.28,1.39-5.64,4.29l-0.46,3.3c1.32,0.56,3.2,1.06,4.88,1.06
		C467.98,490.84,470.52,489.56,470.95,486.39z"/>
	<path class="st3" d="M474.91,493.75l2.31-16.21h1.12l-0.53,3.96h3.7l-0.13,1.06h-3.7l-1.58,11.19c-0.03,0.23-0.07,0.5-0.07,0.73
		c0,0.4,0.07,0.76,0.2,1.09c0.4,1.06,1.19,1.68,2.24,2.05c0.5,0.13,0.99,0.2,1.49,0.2h0.2l-0.17,1.12c-2.31,0-4.22-1.02-4.88-2.94
		c-0.17-0.43-0.26-0.92-0.26-1.45C474.84,494.31,474.88,494.04,474.91,493.75z"/>
	<path class="st3" d="M495.83,483.55c1.81-1.88,3.4-2.28,5.21-2.38h0.23c0.73,0,1.42,0.1,2.08,0.26c1.42,0.43,2.41,1.35,2.9,2.71
		c0.13,0.46,0.2,0.96,0.2,1.45c0,0.3-0.03,0.63-0.07,0.96l-1.68,12.05h-1.22l1.65-11.98c0.07-0.33,0.1-0.63,0.1-0.92
		c0-0.53-0.1-0.99-0.33-1.39c-0.69-1.22-2.05-1.88-3.66-1.91h-0.17c-0.76,0-1.45,0.13-2.14,0.36c-1.45,0.5-2.64,1.55-2.87,3.13
		l-1.78,12.71h-1.16l1.78-12.71c0.03-0.16,0.03-0.3,0.03-0.46c0-0.69-0.26-1.29-0.76-1.75c-0.63-0.53-1.39-0.89-2.31-1.09
		c-0.56-0.1-1.12-0.17-1.68-0.17c-0.43,0-0.86,0.03-1.29,0.07c-1.02,0.16-1.91,0.43-2.64,0.86l-2.15,15.25h-1.22l2.24-16.04
		c1.55-1.02,3.6-1.39,5.54-1.39C492.76,481.17,494.54,481.6,495.83,483.55z"/>
	<path class="st3" d="M511.17,495.63c0.66,1.52,2.41,2.21,4.26,2.21c1.85,0,3.79-0.69,4.85-2.18l0.89,0.5
		c-1.29,1.81-3.66,2.77-5.87,2.77c-2.34,0-4.42-0.92-5.21-2.9c-0.17-0.43-0.26-0.89-0.26-1.45c0-0.26,0.03-0.53,0.07-0.83l0.99-7.23
		c0.53-3.6,3.79-5.35,6.9-5.35c2.31,0,4.36,0.92,5.15,2.9c0.17,0.43,0.26,0.92,0.26,1.45c0,0.3-0.03,0.56-0.07,0.86
		c-0.53,3.7-3.79,5.51-7,5.51c-1.55,0-3.17-0.33-4.72-1.09l-0.43,2.97c-0.03,0.23-0.07,0.46-0.07,0.66
		C510.91,494.87,511.01,495.27,511.17,495.63z M522,486.39c0.03-0.23,0.03-0.43,0.03-0.63c0-0.46-0.07-0.86-0.2-1.22
		c-0.59-1.62-2.31-2.34-4.19-2.34c-2.51,0-5.28,1.39-5.64,4.29l-0.46,3.3c1.32,0.56,3.2,1.06,4.88,1.06
		C519.03,490.84,521.57,489.56,522,486.39z"/>
	<path class="st3" d="M527.64,491.31l10.86-9.8h1.45l-8.45,7.69l6.07,9.41h-1.42l-5.61-8.55l-3.13,2.74l-0.79,5.81h-1.19l3.27-23.37
		h1.19L527.64,491.31z"/>
	<path class="st3" d="M541.44,493.75l2.31-16.21h1.12l-0.53,3.96h3.7l-0.13,1.06h-3.7l-1.58,11.19c-0.03,0.23-0.07,0.5-0.07,0.73
		c0,0.4,0.07,0.76,0.2,1.09c0.4,1.06,1.19,1.68,2.24,2.05c0.5,0.13,0.99,0.2,1.49,0.2h0.2l-0.17,1.12c-2.31,0-4.22-1.02-4.88-2.94
		c-0.17-0.43-0.26-0.92-0.26-1.45C541.37,494.31,541.4,494.04,541.44,493.75z"/>
	<path class="st3" d="M551.01,495.63c0.66,1.52,2.41,2.21,4.26,2.21c1.85,0,3.79-0.69,4.85-2.18l0.89,0.5
		c-1.29,1.81-3.66,2.77-5.88,2.77c-2.34,0-4.42-0.92-5.21-2.9c-0.17-0.43-0.26-0.89-0.26-1.45c0-0.26,0.03-0.53,0.07-0.83l0.99-7.23
		c0.53-3.6,3.79-5.35,6.9-5.35c2.31,0,4.36,0.92,5.15,2.9c0.17,0.43,0.26,0.92,0.26,1.45c0,0.3-0.03,0.56-0.07,0.86
		c-0.53,3.7-3.79,5.51-7,5.51c-1.55,0-3.17-0.33-4.72-1.09l-0.43,2.97c-0.03,0.23-0.07,0.46-0.07,0.66
		C550.74,494.87,550.84,495.27,551.01,495.63z M561.83,486.39c0.03-0.23,0.03-0.43,0.03-0.63c0-0.46-0.07-0.86-0.2-1.22
		c-0.59-1.62-2.31-2.34-4.19-2.34c-2.51,0-5.28,1.39-5.64,4.29l-0.46,3.3c1.32,0.56,3.2,1.06,4.88,1.06
		C558.86,490.84,561.4,489.56,561.83,486.39z"/>
	<path class="st3" d="M565.49,493.71l0.99-7.33c0.43-3.43,3.83-5.21,6.9-5.21c1.58,0,3.27,0.33,4.85,1.09l0.99-7.03h1.19
		l-3.17,22.67c-2.11,0.63-4.29,1.02-6.44,1.02c-2.28-0.07-4.36-0.99-5.08-2.97c-0.2-0.43-0.3-0.92-0.3-1.49
		C565.43,494.24,565.46,493.98,565.49,493.71z M567.7,486.36l-0.99,7.36c-0.03,0.23-0.03,0.43-0.03,0.59c0,0.43,0.07,0.83,0.2,1.19
		c0.59,1.52,2.18,2.28,4.09,2.28c1.62,0,3.37-0.17,5.21-0.79l1.85-13.53c-1.55-0.76-3.23-1.09-4.85-1.09
		C570.71,482.36,568.07,483.65,567.7,486.36z"/>
	<path class="st3" d="M583.35,498.6h-1.22l2.38-17.1h1.22L583.35,498.6z M586.55,476.85c0.17,0.17,0.23,0.4,0.23,0.63v0.17
		c-0.1,0.63-0.63,1.12-1.25,1.12c-0.3,0-0.56-0.1-0.76-0.33c-0.17-0.16-0.23-0.4-0.23-0.63c0-0.36,0.13-0.69,0.43-0.96
		c0.26-0.23,0.56-0.33,0.86-0.33C586.12,476.52,586.38,476.62,586.55,476.85z"/>
	<path class="st3" d="M596.35,481.24c0.33,0,0.69,0.03,1.09,0.07l-0.17,1.16c-0.76-0.1-1.39-0.1-2.15,0.07
		c-1.88,0.43-3.66,1.68-3.96,3.93l-1.68,12.15h-1.19l1.68-12.15c0.36-2.81,2.64-4.59,5.21-5.12c0.36-0.1,0.73-0.13,1.02-0.13
		C596.25,481.21,596.32,481.21,596.35,481.24z"/>
	<path class="st3" d="M598.82,496.55c0.17,0.2,0.23,0.43,0.23,0.69v0.2c-0.1,0.69-0.73,1.25-1.42,1.25c-0.36,0-0.63-0.13-0.86-0.36
		c-0.17-0.2-0.23-0.43-0.23-0.73v-0.16c0.1-0.69,0.76-1.25,1.45-1.25C598.36,496.19,598.62,496.32,598.82,496.55z"/>
	<path class="st3" d="M60.47,531.86c-0.69,4.69-4.19,6.37-8.38,6.37h-8.75l3.3-23.43h8.78c2.61,0,4.69,1.16,5.35,3.33
		c0.17,0.43,0.23,0.92,0.23,1.49c0,0.3-0.03,0.63-0.07,0.99c-0.23,1.85-1.22,3.79-3.07,4.82l-1.02,0.4l1.06,0.23
		c1.95,0.79,2.67,2.47,2.67,4.12c0.03,0.07,0.03,0.13,0.03,0.2C60.6,530.87,60.57,531.37,60.47,531.86z M52.65,536.95
		c0.76,0,1.49-0.07,2.18-0.2c2.31-0.53,3.99-1.98,4.39-4.92c0.07-0.43,0.1-0.79,0.1-1.15c0-1.35-0.4-2.38-1.19-3.04
		c-0.96-0.83-2.38-1.22-4.19-1.22H53.8h-7.49l-1.49,10.53h7.49H52.65z M53.97,525.26c2.94,0,5.31-1.42,5.74-4.62
		c0.03-0.3,0.07-0.56,0.07-0.83c0-0.43-0.07-0.86-0.2-1.22c-0.53-1.72-2.18-2.61-4.32-2.61h-7.49l-1.29,9.27H53.97z"/>
	<path class="st3" d="M64.26,535.76c-0.17-0.43-0.26-0.92-0.26-1.49c0-0.26,0.03-0.56,0.07-0.86l1.02-7.33
		c0.53-3.99,3.99-5.28,7.36-5.28c2.11,0,4.09,0.4,5.54,1.09l-2.28,16.3h-1.12l0.23-1.82c-1.55,1.49-3.5,2.15-5.48,2.15
		C67.13,538.53,65.06,537.71,64.26,535.76z M66.24,526.05l-1.02,7.36c-0.03,0.23-0.07,0.5-0.07,0.73c0,0.43,0.07,0.79,0.23,1.12
		c0.59,1.55,2.31,2.18,4.16,2.18c1.98,0,4.03-0.89,5.45-2.31l1.72-12.38c-1.09-0.56-2.67-0.86-4.26-0.86
		C69.64,521.9,66.67,522.98,66.24,526.05z"/>
	<path class="st3" d="M85.91,537.44c1.78,0,4.36-1.19,4.72-3.66c0.03-0.2,0.03-0.4,0.03-0.56c0-0.4-0.07-0.76-0.2-1.06
		c-0.59-1.32-2.18-1.88-3.6-2.14c-1.95-0.33-3.96-0.99-4.75-2.58c-0.17-0.4-0.26-0.86-0.26-1.35c0-0.23,0-0.46,0.03-0.69
		c0.33-2.64,2.44-4.16,4.72-4.52c0.46-0.1,0.92-0.13,1.35-0.13c0.3,0,0.59,0.03,0.89,0.07c1.49,0.17,2.84,0.76,3.63,1.78l-0.86,0.86
		c-0.5-0.63-1.16-1.06-2.05-1.32c-0.56-0.17-1.12-0.26-1.68-0.26c-0.33,0-0.66,0.03-0.96,0.1c-1.82,0.26-3.43,1.42-3.8,3.43
		c-0.03,0.17-0.03,0.33-0.03,0.5c0,0.46,0.1,0.86,0.26,1.16c0.83,1.25,2.47,1.55,3.86,1.81c1.88,0.33,3.66,1.16,4.32,2.87
		c0.17,0.43,0.23,0.89,0.23,1.39c0,0.23,0,0.43-0.03,0.66c-0.43,3.07-3.27,4.65-5.97,4.75h-0.3c-1.16,0-2.18-0.23-3.1-0.73
		c-0.99-0.53-1.78-1.32-2.34-2.38l1.06-0.63c0.56,0.96,1.25,1.62,2.08,2.05c0.76,0.4,1.62,0.59,2.57,0.59H85.91z"/>
	<path class="st3" d="M96.27,538.2h-1.22l2.38-17.1h1.22L96.27,538.2z M99.47,516.45c0.17,0.17,0.23,0.4,0.23,0.63v0.17
		c-0.1,0.63-0.63,1.12-1.25,1.12c-0.3,0-0.56-0.1-0.76-0.33c-0.17-0.17-0.23-0.4-0.23-0.63c0-0.36,0.13-0.69,0.43-0.96
		c0.26-0.23,0.56-0.33,0.86-0.33S99.31,516.22,99.47,516.45z"/>
	<path class="st3" d="M101.88,533.35l2.31-16.21h1.12l-0.53,3.96h3.7l-0.13,1.06h-3.7l-1.58,11.19c-0.03,0.23-0.07,0.5-0.07,0.73
		c0,0.4,0.07,0.76,0.2,1.09c0.4,1.06,1.19,1.68,2.24,2.05c0.5,0.13,0.99,0.2,1.49,0.2h0.2l-0.17,1.12c-2.31,0-4.22-1.02-4.88-2.94
		c-0.17-0.43-0.26-0.92-0.26-1.45C101.82,533.91,101.85,533.65,101.88,533.35z"/>
	<path class="st3" d="M130.96,521.1l-8.51,17.1h-1.75l-3.7-17.1h1.29l3.4,16.17l8.02-16.17H130.96z"/>
	<path class="st3" d="M133,535.23c0.66,1.52,2.41,2.21,4.26,2.21c1.85,0,3.8-0.69,4.85-2.18l0.89,0.5
		c-1.29,1.82-3.66,2.77-5.88,2.77c-2.34,0-4.42-0.92-5.21-2.9c-0.17-0.43-0.26-0.89-0.26-1.45c0-0.26,0.03-0.53,0.07-0.83l0.99-7.23
		c0.53-3.6,3.8-5.35,6.9-5.35c2.31,0,4.36,0.92,5.15,2.9c0.17,0.43,0.26,0.92,0.26,1.45c0,0.3-0.03,0.56-0.07,0.86
		c-0.53,3.7-3.8,5.51-7,5.51c-1.55,0-3.17-0.33-4.72-1.09l-0.43,2.97c-0.03,0.23-0.07,0.46-0.07,0.66
		C132.74,534.47,132.84,534.87,133,535.23z M143.83,525.99c0.03-0.23,0.03-0.43,0.03-0.63c0-0.46-0.07-0.86-0.2-1.22
		c-0.59-1.62-2.31-2.34-4.19-2.34c-2.51,0-5.28,1.39-5.64,4.29l-0.46,3.3c1.32,0.56,3.2,1.06,4.88,1.06
		C140.86,530.44,143.4,529.16,143.83,525.99z"/>
	<path class="st3" d="M157.32,530.91l10.86-9.8h1.45l-8.45,7.69l6.07,9.41h-1.42l-5.61-8.55l-3.14,2.74l-0.79,5.81h-1.19l3.27-23.37
		h1.19L157.32,530.91z"/>
	<path class="st3" d="M171.15,533.32l1.72-12.21h1.19l-1.72,12.21c-0.03,0.23-0.07,0.43-0.07,0.66c0,0.43,0.07,0.79,0.23,1.12
		c0.66,1.52,2.28,2.21,4.09,2.21c1.88,0,3.99-0.49,5.21-0.99l2.11-15.21h1.19l-2.24,16.17c-2.11,0.69-4.29,1.25-6.44,1.25
		c-2.28-0.07-4.29-0.99-5.08-2.97c-0.17-0.43-0.26-0.89-0.26-1.42C171.08,533.88,171.12,533.61,171.15,533.32z"/>
	<path class="st3" d="M188.28,533.45l2.57-18.61h1.19l-2.57,18.61c-0.03,0.36-0.07,0.73-0.07,1.02c0,0.76,0.13,1.39,0.43,1.88
		c0.43,0.66,1.25,0.99,2.44,0.99l-0.17,1.19c-1.45-0.03-2.51-0.5-3.2-1.32c-0.5-0.63-0.73-1.49-0.73-2.54
		C188.18,534.31,188.21,533.88,188.28,533.45z"/>
	<path class="st3" d="M195.5,533.45l2.58-18.61h1.19l-2.57,18.61c-0.03,0.36-0.07,0.73-0.07,1.02c0,0.76,0.13,1.39,0.43,1.88
		c0.43,0.66,1.25,0.99,2.44,0.99l-0.17,1.19c-1.45-0.03-2.51-0.5-3.2-1.32c-0.5-0.63-0.73-1.49-0.73-2.54
		C195.4,534.31,195.44,533.88,195.5,533.45z"/>
	<path class="st3" d="M202.63,535.76c-0.17-0.43-0.26-0.92-0.26-1.49c0-0.26,0.03-0.56,0.07-0.86l1.02-7.33
		c0.53-3.99,3.99-5.28,7.36-5.28c2.11,0,4.09,0.4,5.54,1.09l-2.28,16.3h-1.12l0.23-1.82c-1.55,1.49-3.5,2.15-5.48,2.15
		C205.5,538.53,203.42,537.71,202.63,535.76z M204.61,526.05l-1.02,7.36c-0.03,0.23-0.07,0.5-0.07,0.73c0,0.43,0.07,0.79,0.23,1.12
		c0.59,1.55,2.31,2.18,4.16,2.18c1.98,0,4.03-0.89,5.45-2.31l1.72-12.38c-1.09-0.56-2.67-0.86-4.26-0.86
		C208.01,521.9,205.04,522.98,204.61,526.05z"/>
	<path class="st3" d="M232.99,525.99l-1.72,12.21h-1.19l1.72-12.21c0.03-0.2,0.03-0.4,0.03-0.59c0-0.43-0.07-0.83-0.2-1.19
		c-0.66-1.52-2.28-2.21-4.09-2.21c-1.88,0-3.93,0.5-5.21,0.99l-2.11,15.22h-1.19l2.28-16.17c2.08-0.69,4.26-1.25,6.4-1.25
		c2.28,0.07,4.32,0.99,5.12,2.97c0.17,0.43,0.23,0.89,0.23,1.39C233.06,525.43,233.03,525.69,232.99,525.99z"/>
	<path class="st3" d="M237.45,538.2h-1.22l2.38-17.1h1.22L237.45,538.2z"/>
	<path class="st3" d="M253.52,533.78c-0.43,2.74-2.71,4.32-5.21,4.69l-1.06,1.88c0.83,0,1.48,0.23,1.91,0.69
		c0.26,0.3,0.4,0.66,0.4,1.09c0,0.23-0.03,0.46-0.13,0.76c-0.56,1.68-1.95,2.21-3.37,2.21c-1.22,0-2.05-0.36-2.71-0.86l0.33-0.92
		c0.76,0.49,1.45,0.79,2.34,0.79c0.89,0,1.78-0.23,2.18-1.29c0.53-1.62-1.19-1.75-2.24-1.48l-0.17-0.26l1.45-2.54
		c-2.38-0.03-4.36-1.09-5.45-3.1l1.06-0.63c0.56,0.96,1.25,1.62,2.08,2.05c0.76,0.4,1.62,0.59,2.57,0.59h0.17
		c1.78,0,4.36-1.19,4.72-3.66c0.03-0.2,0.03-0.4,0.03-0.56c0-0.4-0.07-0.76-0.2-1.06c-0.59-1.32-2.18-1.88-3.6-2.14
		c-1.95-0.33-3.96-0.99-4.75-2.58c-0.17-0.4-0.26-0.86-0.26-1.35c0-0.23,0-0.46,0.03-0.69c0.33-2.64,2.44-4.16,4.72-4.52
		c0.46-0.1,0.92-0.13,1.35-0.13c0.3,0,0.59,0.03,0.89,0.07c1.49,0.17,2.84,0.76,3.63,1.78l-0.86,0.86c-0.5-0.63-1.16-1.06-2.05-1.32
		c-0.56-0.17-1.12-0.26-1.68-0.26c-0.33,0-0.66,0.03-0.96,0.1c-1.82,0.26-3.43,1.42-3.8,3.43c-0.03,0.17-0.03,0.33-0.03,0.5
		c0,0.46,0.1,0.86,0.26,1.16c0.83,1.25,2.47,1.55,3.86,1.81c1.88,0.33,3.66,1.16,4.32,2.87c0.17,0.43,0.23,0.89,0.23,1.39
		C253.55,533.35,253.55,533.55,253.52,533.78z"/>
	<path class="st3" d="M257.38,533.45l2.57-18.61h1.19l-2.57,18.61c-0.03,0.36-0.07,0.73-0.07,1.02c0,0.76,0.13,1.39,0.43,1.88
		c0.43,0.66,1.25,0.99,2.44,0.99l-0.17,1.19c-1.45-0.03-2.51-0.5-3.2-1.32c-0.5-0.63-0.73-1.49-0.73-2.54
		C257.28,534.31,257.31,533.88,257.38,533.45z"/>
	<path class="st3" d="M265.26,538.2h-1.22l2.38-17.1h1.22L265.26,538.2z"/>
	<path class="st3" d="M291.04,523.15c1.81-1.88,3.4-2.28,5.21-2.38h0.23c0.73,0,1.42,0.1,2.08,0.26c1.42,0.43,2.41,1.35,2.9,2.71
		c0.13,0.46,0.2,0.96,0.2,1.45c0,0.3-0.03,0.63-0.07,0.96l-1.68,12.05h-1.22l1.65-11.98c0.07-0.33,0.1-0.63,0.1-0.92
		c0-0.53-0.1-0.99-0.33-1.39c-0.69-1.22-2.05-1.88-3.66-1.92h-0.17c-0.76,0-1.45,0.13-2.14,0.36c-1.45,0.5-2.64,1.55-2.87,3.14
		l-1.78,12.71h-1.16l1.78-12.71c0.03-0.17,0.03-0.3,0.03-0.46c0-0.69-0.26-1.29-0.76-1.75c-0.63-0.53-1.39-0.89-2.31-1.09
		c-0.56-0.1-1.12-0.17-1.68-0.17c-0.43,0-0.86,0.03-1.29,0.07c-1.02,0.17-1.91,0.43-2.64,0.86l-2.15,15.25h-1.22l2.24-16.04
		c1.55-1.02,3.6-1.39,5.54-1.39C287.97,520.77,289.75,521.2,291.04,523.15z"/>
	<path class="st3" d="M306.38,535.23c0.66,1.52,2.41,2.21,4.26,2.21c1.85,0,3.79-0.69,4.85-2.18l0.89,0.5
		c-1.29,1.82-3.66,2.77-5.87,2.77c-2.34,0-4.42-0.92-5.21-2.9c-0.17-0.43-0.26-0.89-0.26-1.45c0-0.26,0.03-0.53,0.07-0.83l0.99-7.23
		c0.53-3.6,3.79-5.35,6.9-5.35c2.31,0,4.36,0.92,5.15,2.9c0.17,0.43,0.26,0.92,0.26,1.45c0,0.3-0.03,0.56-0.07,0.86
		c-0.53,3.7-3.79,5.51-7,5.51c-1.55,0-3.17-0.33-4.72-1.09l-0.43,2.97c-0.03,0.23-0.07,0.46-0.07,0.66
		C306.12,534.47,306.22,534.87,306.38,535.23z M317.21,525.99c0.03-0.23,0.03-0.43,0.03-0.63c0-0.46-0.07-0.86-0.2-1.22
		c-0.59-1.62-2.31-2.34-4.19-2.34c-2.51,0-5.28,1.39-5.64,4.29l-0.46,3.3c1.32,0.56,3.2,1.06,4.88,1.06
		C314.24,530.44,316.78,529.16,317.21,525.99z"/>
	<path class="st3" d="M334.53,525.99l-1.72,12.21h-1.19l1.72-12.21c0.03-0.2,0.03-0.4,0.03-0.59c0-0.43-0.07-0.83-0.2-1.19
		c-0.66-1.52-2.28-2.21-4.09-2.21c-1.88,0-3.93,0.5-5.21,0.99l-2.11,15.22h-1.19l2.28-16.17c2.08-0.69,4.26-1.25,6.4-1.25
		c2.28,0.07,4.32,0.99,5.12,2.97c0.17,0.43,0.23,0.89,0.23,1.39C334.6,525.43,334.56,525.69,334.53,525.99z"/>
	<path class="st3" d="M338.32,533.32l1.72-12.21h1.19l-1.72,12.21c-0.03,0.23-0.07,0.43-0.07,0.66c0,0.43,0.07,0.79,0.23,1.12
		c0.66,1.52,2.28,2.21,4.09,2.21c1.88,0,3.99-0.49,5.21-0.99l2.11-15.21h1.19l-2.24,16.17c-2.11,0.69-4.29,1.25-6.44,1.25
		c-2.28-0.07-4.29-0.99-5.08-2.97c-0.17-0.43-0.26-0.89-0.26-1.42C338.26,533.88,338.29,533.61,338.32,533.32z M344.86,517.04
		c-0.1,0.53-0.56,0.99-1.12,0.99c-0.53,0-0.96-0.46-0.86-0.99c0.1-0.56,0.59-0.99,1.12-0.99
		C344.56,516.05,344.96,516.48,344.86,517.04z M350.64,517.04c-0.1,0.53-0.59,0.99-1.12,0.99c-0.56,0-0.96-0.46-0.86-0.99
		c0.1-0.56,0.56-0.99,1.12-0.99C350.31,516.05,350.73,516.48,350.64,517.04z"/>
	<path class="st3" d="M355.45,533.45l2.57-18.61h1.19l-2.57,18.61c-0.03,0.36-0.07,0.73-0.07,1.02c0,0.76,0.13,1.39,0.43,1.88
		c0.43,0.66,1.25,0.99,2.44,0.99l-0.17,1.19c-1.45-0.03-2.51-0.5-3.2-1.32c-0.5-0.63-0.73-1.49-0.73-2.54
		C355.35,534.31,355.38,533.88,355.45,533.45z"/>
	<path class="st3" d="M363.64,535.23c0.66,1.52,2.41,2.21,4.26,2.21c1.85,0,3.8-0.69,4.85-2.18l0.89,0.5
		c-1.29,1.82-3.66,2.77-5.88,2.77c-2.34,0-4.42-0.92-5.21-2.9c-0.17-0.43-0.26-0.89-0.26-1.45c0-0.26,0.03-0.53,0.07-0.83l0.99-7.23
		c0.53-3.6,3.8-5.35,6.9-5.35c2.31,0,4.36,0.92,5.15,2.9c0.17,0.43,0.26,0.92,0.26,1.45c0,0.3-0.03,0.56-0.07,0.86
		c-0.53,3.7-3.8,5.51-7,5.51c-1.55,0-3.17-0.33-4.72-1.09l-0.43,2.97c-0.03,0.23-0.07,0.46-0.07,0.66
		C363.37,534.47,363.47,534.87,363.64,535.23z M374.46,525.99c0.03-0.23,0.03-0.43,0.03-0.63c0-0.46-0.07-0.86-0.2-1.22
		c-0.59-1.62-2.31-2.34-4.19-2.34c-2.51,0-5.28,1.39-5.64,4.29l-0.46,3.3c1.32,0.56,3.2,1.06,4.88,1.06
		C371.49,530.44,374.03,529.16,374.46,525.99z"/>
	<path class="st3" d="M385.81,520.84c0.33,0,0.69,0.03,1.09,0.07l-0.17,1.15c-0.76-0.1-1.39-0.1-2.15,0.07
		c-1.88,0.43-3.66,1.68-3.96,3.93l-1.68,12.15h-1.19l1.68-12.15c0.36-2.81,2.64-4.59,5.21-5.12c0.36-0.1,0.73-0.13,1.02-0.13
		C385.71,520.81,385.78,520.81,385.81,520.84z"/>
	<path class="st3" d="M397,530.91l10.86-9.8h1.45l-8.45,7.69l6.07,9.41h-1.42l-5.61-8.55l-3.14,2.74l-0.79,5.81h-1.19l3.27-23.37
		h1.19L397,530.91z"/>
	<path class="st3" d="M410.82,533.32l1.72-12.21h1.19l-1.72,12.21c-0.03,0.23-0.07,0.43-0.07,0.66c0,0.43,0.07,0.79,0.23,1.12
		c0.66,1.52,2.28,2.21,4.09,2.21c1.88,0,3.99-0.49,5.21-0.99l2.11-15.21h1.19l-2.24,16.17c-2.11,0.69-4.29,1.25-6.44,1.25
		c-2.28-0.07-4.29-0.99-5.08-2.97c-0.17-0.43-0.26-0.89-0.26-1.42C410.76,533.88,410.79,533.61,410.82,533.32z"/>
	<path class="st3" d="M427.95,533.45l2.58-18.61h1.19l-2.57,18.61c-0.03,0.36-0.07,0.73-0.07,1.02c0,0.76,0.13,1.39,0.43,1.88
		c0.43,0.66,1.25,0.99,2.44,0.99l-0.17,1.19c-1.45-0.03-2.51-0.5-3.2-1.32c-0.5-0.63-0.73-1.49-0.73-2.54
		C427.85,534.31,427.89,533.88,427.95,533.45z"/>
	<path class="st3" d="M435.18,533.45l2.58-18.61h1.19l-2.57,18.61c-0.03,0.36-0.07,0.73-0.07,1.02c0,0.76,0.13,1.39,0.43,1.88
		c0.43,0.66,1.25,0.99,2.44,0.99l-0.17,1.19c-1.45-0.03-2.51-0.5-3.2-1.32c-0.5-0.63-0.73-1.49-0.73-2.54
		C435.08,534.31,435.11,533.88,435.18,533.45z"/>
	<path class="st3" d="M442.31,535.76c-0.17-0.43-0.26-0.92-0.26-1.49c0-0.26,0.03-0.56,0.07-0.86l1.02-7.33
		c0.53-3.99,3.99-5.28,7.36-5.28c2.11,0,4.09,0.4,5.54,1.09l-2.28,16.3h-1.12l0.23-1.82c-1.55,1.49-3.5,2.15-5.48,2.15
		C445.18,538.53,443.1,537.71,442.31,535.76z M444.29,526.05l-1.02,7.36c-0.03,0.23-0.07,0.5-0.07,0.73c0,0.43,0.07,0.79,0.23,1.12
		c0.59,1.55,2.31,2.18,4.16,2.18c1.98,0,4.03-0.89,5.45-2.31l1.72-12.38c-1.09-0.56-2.67-0.86-4.26-0.86
		C447.69,521.9,444.72,522.98,444.29,526.05z"/>
	<path class="st3" d="M472.67,525.99l-1.72,12.21h-1.19l1.72-12.21c0.03-0.2,0.03-0.4,0.03-0.59c0-0.43-0.07-0.83-0.2-1.19
		c-0.66-1.52-2.28-2.21-4.09-2.21c-1.88,0-3.93,0.5-5.21,0.99l-2.11,15.22h-1.19l2.28-16.17c2.08-0.69,4.26-1.25,6.4-1.25
		c2.28,0.07,4.32,0.99,5.12,2.97c0.17,0.43,0.23,0.89,0.23,1.39C472.73,525.43,472.7,525.69,472.67,525.99z"/>
	<path class="st3" d="M488.77,523.15c1.81-1.88,3.4-2.28,5.21-2.38h0.23c0.73,0,1.42,0.1,2.08,0.26c1.42,0.43,2.41,1.35,2.9,2.71
		c0.13,0.46,0.2,0.96,0.2,1.45c0,0.3-0.03,0.63-0.07,0.96l-1.68,12.05h-1.22l1.65-11.98c0.07-0.33,0.1-0.63,0.1-0.92
		c0-0.53-0.1-0.99-0.33-1.39c-0.69-1.22-2.05-1.88-3.66-1.92h-0.17c-0.76,0-1.45,0.13-2.14,0.36c-1.45,0.5-2.64,1.55-2.87,3.14
		l-1.78,12.71h-1.16l1.78-12.71c0.03-0.17,0.03-0.3,0.03-0.46c0-0.69-0.26-1.29-0.76-1.75c-0.63-0.53-1.39-0.89-2.31-1.09
		c-0.56-0.1-1.12-0.17-1.68-0.17c-0.43,0-0.86,0.03-1.29,0.07c-1.02,0.17-1.91,0.43-2.64,0.86l-2.15,15.25h-1.22l2.24-16.04
		c1.55-1.02,3.6-1.39,5.54-1.39C485.7,520.77,487.48,521.2,488.77,523.15z"/>
	<path class="st3" d="M503.06,535.76c-0.17-0.43-0.26-0.92-0.26-1.49c0-0.26,0.03-0.56,0.07-0.86l1.02-7.33
		c0.53-3.99,3.99-5.28,7.36-5.28c2.11,0,4.09,0.4,5.54,1.09l-2.28,16.3h-1.12l0.23-1.82c-1.55,1.49-3.5,2.15-5.48,2.15
		C505.93,538.53,503.85,537.71,503.06,535.76z M505.04,526.05l-1.02,7.36c-0.03,0.23-0.07,0.5-0.07,0.73c0,0.43,0.07,0.79,0.23,1.12
		c0.59,1.55,2.31,2.18,4.16,2.18c1.98,0,4.03-0.89,5.45-2.31l1.72-12.38c-1.09-0.56-2.67-0.86-4.26-0.86
		C508.44,521.9,505.47,522.98,505.04,526.05z"/>
	<path class="st3" d="M519.62,543.35l0.86-0.73c1.02,0.92,2.58,1.42,4.19,1.42c2.51,0,5.05-1.16,5.48-3.89l0.43-2.84
		c-1.88,0.89-3.53,1.22-5.08,1.22c-2.31,0-4.46-0.99-5.18-2.9c-0.2-0.46-0.3-0.96-0.3-1.52c0-0.23,0.03-0.5,0.07-0.76l1.68-12.21
		h1.19l-1.68,12.21c-0.03,0.23-0.03,0.43-0.03,0.59c0,0.43,0.07,0.83,0.2,1.19c0.59,1.52,2.18,2.31,4.12,2.31
		c2.11,0,3.07-0.4,5.18-1.29l2.08-15.02h1.16l-2.67,18.98c-0.53,3.53-3.66,5.05-6.73,5.05
		C522.59,545.16,520.71,544.54,519.62,543.35z"/>
	<path class="st3" d="M537.11,535.76c-0.17-0.43-0.26-0.92-0.26-1.49c0-0.26,0.03-0.56,0.07-0.86l1.02-7.33
		c0.53-3.99,3.99-5.28,7.36-5.28c2.11,0,4.09,0.4,5.54,1.09l-2.28,16.3h-1.12l0.23-1.82c-1.55,1.49-3.5,2.15-5.48,2.15
		C539.98,538.53,537.91,537.71,537.11,535.76z M539.09,526.05l-1.02,7.36c-0.03,0.23-0.07,0.5-0.07,0.73c0,0.43,0.07,0.79,0.23,1.12
		c0.59,1.55,2.31,2.18,4.16,2.18c1.98,0,4.03-0.89,5.45-2.31l1.72-12.38c-1.09-0.56-2.67-0.86-4.26-0.86
		C542.49,521.9,539.52,522.98,539.09,526.05z"/>
	<path class="st3" d="M574.7,523.74c0.17,0.43,0.26,0.96,0.26,1.52c0,0.23,0,0.5-0.03,0.76l-0.99,7.26c-0.43,3.5-3.83,5.25-6.9,5.25
		c-2.31,0-4.39-0.99-5.18-2.97c-0.17-0.43-0.26-0.96-0.26-1.52c0-0.23,0-0.49,0.03-0.76l0.99-7.26c0.43-3.5,3.86-5.25,6.9-5.25
		C571.9,520.77,573.91,521.76,574.7,523.74z M563.81,526.02l-0.99,7.26c-0.03,0.23-0.07,0.46-0.07,0.66c0,0.43,0.07,0.83,0.23,1.16
		c0.66,1.58,2.41,2.24,4.22,2.24c2.41,0,5.12-1.22,5.54-4.06l0.99-7.26c0.03-0.2,0.03-0.4,0.03-0.59c0-0.46-0.07-0.86-0.23-1.22
		c-0.66-1.52-2.34-2.21-4.19-2.21C567.01,521.99,564.17,523.22,563.81,526.02z M568.13,517.04c-0.1,0.53-0.56,0.99-1.12,0.99
		c-0.53,0-0.96-0.46-0.86-0.99c0.1-0.56,0.59-0.99,1.12-0.99C567.84,516.05,568.23,516.48,568.13,517.04z M573.91,517.04
		c-0.1,0.53-0.59,0.99-1.12,0.99c-0.56,0-0.96-0.46-0.86-0.99c0.1-0.56,0.56-0.99,1.12-0.99
		C573.58,516.05,574.01,516.48,573.91,517.04z"/>
	<path class="st3" d="M579.29,521.1h11.42l0.4,0.79l-13.07,15.15h10.76l-0.13,1.16h-11.75l-0.53-0.92l13.04-15.05h-10.26
		L579.29,521.1z"/>
	<path class="st3" d="M594.07,535.23c0.66,1.52,2.41,2.21,4.26,2.21c1.85,0,3.79-0.69,4.85-2.18l0.89,0.5
		c-1.29,1.82-3.66,2.77-5.88,2.77c-2.34,0-4.42-0.92-5.21-2.9c-0.17-0.43-0.26-0.89-0.26-1.45c0-0.26,0.03-0.53,0.07-0.83l0.99-7.23
		c0.53-3.6,3.79-5.35,6.9-5.35c2.31,0,4.36,0.92,5.15,2.9c0.17,0.43,0.26,0.92,0.26,1.45c0,0.3-0.03,0.56-0.07,0.86
		c-0.53,3.7-3.79,5.51-7,5.51c-1.55,0-3.17-0.33-4.72-1.09l-0.43,2.97c-0.03,0.23-0.07,0.46-0.07,0.66
		C593.81,534.47,593.91,534.87,594.07,535.23z M604.9,525.99c0.03-0.23,0.03-0.43,0.03-0.63c0-0.46-0.07-0.86-0.2-1.22
		c-0.59-1.62-2.31-2.34-4.19-2.34c-2.51,0-5.28,1.39-5.64,4.29l-0.46,3.3c1.32,0.56,3.2,1.06,4.88,1.06
		C601.92,530.44,604.47,529.16,604.9,525.99z"/>
	<path class="st3" d="M622.22,525.99l-1.72,12.21h-1.19l1.72-12.21c0.03-0.2,0.03-0.4,0.03-0.59c0-0.43-0.07-0.83-0.2-1.19
		c-0.66-1.52-2.28-2.21-4.09-2.21c-1.88,0-3.93,0.5-5.21,0.99l-2.11,15.22h-1.19l2.28-16.17c2.08-0.69,4.26-1.25,6.4-1.25
		c2.28,0.07,4.32,0.99,5.12,2.97c0.17,0.43,0.23,0.89,0.23,1.39C622.29,525.43,622.25,525.69,622.22,525.99z"/>
	<path class="st3" d="M643.57,540.15l0.46-2.84c-1.88,0.89-3.53,1.22-5.08,1.22c-2.38,0-4.39-0.99-5.18-2.9
		c-0.17-0.46-0.26-0.96-0.26-1.52c0-0.23,0.03-0.5,0.07-0.76l1.02-7.43c0.43-3.4,3.73-5.15,6.7-5.15c2.28,0,3.89,0.5,6.04,1.25
		l-2.61,18.09c-0.53,3.53-3.66,5.05-6.73,5.05c-1.98,0-3.86-0.63-4.95-1.81l0.76-0.76c1.02,0.92,2.71,1.45,4.29,1.45
		C640.77,544.04,643.14,542.89,643.57,540.15z M635.78,525.89l-1.02,7.46c-0.03,0.23-0.03,0.43-0.03,0.59c0,0.43,0.07,0.83,0.2,1.19
		c0.59,1.52,2.18,2.28,4.09,2.28c2.08,0,3.1-0.33,5.18-1.29l1.85-13.2c-1.09-0.5-3.04-0.99-4.92-0.99
		C638.69,521.93,636.15,523.25,635.78,525.89z"/>
	<path class="st3" d="M663.3,523.74c0.17,0.43,0.26,0.96,0.26,1.52c0,0.23,0,0.5-0.03,0.76l-0.99,7.26c-0.43,3.5-3.83,5.25-6.9,5.25
		c-2.31,0-4.39-0.99-5.18-2.97c-0.17-0.43-0.26-0.96-0.26-1.52c0-0.23,0-0.49,0.03-0.76l0.99-7.26c0.43-3.5,3.86-5.25,6.9-5.25
		C660.5,520.77,662.51,521.76,663.3,523.74z M652.41,526.02l-0.99,7.26c-0.03,0.23-0.07,0.46-0.07,0.66c0,0.43,0.07,0.83,0.23,1.16
		c0.66,1.58,2.41,2.24,4.22,2.24c2.41,0,5.12-1.22,5.54-4.06l0.99-7.26c0.03-0.2,0.03-0.4,0.03-0.59c0-0.46-0.07-0.86-0.23-1.22
		c-0.66-1.52-2.34-2.21-4.19-2.21C655.62,521.99,652.78,523.22,652.41,526.02z M656.74,517.04c-0.1,0.53-0.56,0.99-1.12,0.99
		c-0.53,0-0.96-0.46-0.86-0.99c0.1-0.56,0.59-0.99,1.12-0.99C656.44,516.05,656.84,516.48,656.74,517.04z M662.51,517.04
		c-0.1,0.53-0.59,0.99-1.12,0.99c-0.56,0-0.96-0.46-0.86-0.99c0.1-0.56,0.56-0.99,1.12-0.99
		C662.18,516.05,662.61,516.48,662.51,517.04z"/>
	<path class="st3" d="M671.59,537.44c1.78,0,4.36-1.19,4.72-3.66c0.03-0.2,0.03-0.4,0.03-0.56c0-0.4-0.07-0.76-0.2-1.06
		c-0.59-1.32-2.18-1.88-3.6-2.14c-1.95-0.33-3.96-0.99-4.75-2.58c-0.17-0.4-0.26-0.86-0.26-1.35c0-0.23,0-0.46,0.03-0.69
		c0.33-2.64,2.44-4.16,4.72-4.52c0.46-0.1,0.92-0.13,1.35-0.13c0.3,0,0.59,0.03,0.89,0.07c1.49,0.17,2.84,0.76,3.63,1.78l-0.86,0.86
		c-0.5-0.63-1.16-1.06-2.05-1.32c-0.56-0.17-1.12-0.26-1.68-0.26c-0.33,0-0.66,0.03-0.96,0.1c-1.82,0.26-3.43,1.42-3.8,3.43
		c-0.03,0.17-0.03,0.33-0.03,0.5c0,0.46,0.1,0.86,0.26,1.16c0.83,1.25,2.48,1.55,3.86,1.81c1.88,0.33,3.66,1.16,4.32,2.87
		c0.17,0.43,0.23,0.89,0.23,1.39c0,0.23,0,0.43-0.03,0.66c-0.43,3.07-3.27,4.65-5.97,4.75h-0.3c-1.16,0-2.18-0.23-3.1-0.73
		c-0.99-0.53-1.78-1.32-2.34-2.38l1.06-0.63c0.56,0.96,1.25,1.62,2.08,2.05c0.76,0.4,1.62,0.59,2.57,0.59H671.59z"/>
	<path class="st3" d="M681.29,533.35l2.31-16.21h1.12l-0.53,3.96h3.7l-0.13,1.06h-3.7l-1.58,11.19c-0.03,0.23-0.07,0.5-0.07,0.73
		c0,0.4,0.07,0.76,0.2,1.09c0.4,1.06,1.19,1.68,2.24,2.05c0.5,0.13,0.99,0.2,1.49,0.2h0.2l-0.17,1.12c-2.31,0-4.22-1.02-4.88-2.94
		c-0.17-0.43-0.26-0.92-0.26-1.45C681.22,533.91,681.25,533.65,681.29,533.35z"/>
	<path class="st3" d="M690.86,535.23c0.66,1.52,2.41,2.21,4.26,2.21c1.85,0,3.79-0.69,4.85-2.18l0.89,0.5
		c-1.29,1.82-3.66,2.77-5.88,2.77c-2.34,0-4.42-0.92-5.21-2.9c-0.17-0.43-0.26-0.89-0.26-1.45c0-0.26,0.03-0.53,0.07-0.83l0.99-7.23
		c0.53-3.6,3.79-5.35,6.9-5.35c2.31,0,4.36,0.92,5.15,2.9c0.17,0.43,0.26,0.92,0.26,1.45c0,0.3-0.03,0.56-0.07,0.86
		c-0.53,3.7-3.79,5.51-7,5.51c-1.55,0-3.17-0.33-4.72-1.09l-0.43,2.97c-0.03,0.23-0.07,0.46-0.07,0.66
		C690.59,534.47,690.69,534.87,690.86,535.23z M701.68,525.99c0.03-0.23,0.03-0.43,0.03-0.63c0-0.46-0.07-0.86-0.2-1.22
		c-0.59-1.62-2.31-2.34-4.19-2.34c-2.51,0-5.28,1.39-5.64,4.29l-0.46,3.3c1.32,0.56,3.2,1.06,4.88,1.06
		C698.71,530.44,701.25,529.16,701.68,525.99z"/>
	<path class="st3" d="M713.03,520.84c0.33,0,0.69,0.03,1.09,0.07l-0.17,1.15c-0.76-0.1-1.39-0.1-2.15,0.07
		c-1.88,0.43-3.66,1.68-3.96,3.93l-1.68,12.15h-1.19l1.68-12.15c0.36-2.81,2.64-4.59,5.21-5.12c0.36-0.1,0.73-0.13,1.02-0.13
		C712.94,520.81,713,520.81,713.03,520.84z"/>
	<path class="st3" d="M716,538.2h-1.22l2.38-17.1h1.22L716,538.2z M719.21,516.45c0.17,0.17,0.23,0.4,0.23,0.63v0.17
		c-0.1,0.63-0.63,1.12-1.25,1.12c-0.3,0-0.56-0.1-0.76-0.33c-0.17-0.17-0.23-0.4-0.23-0.63c0-0.36,0.13-0.69,0.43-0.96
		c0.26-0.23,0.56-0.33,0.86-0.33C718.78,516.12,719.04,516.22,719.21,516.45z"/>
	<path class="st3" d="M734.98,525.99l-1.72,12.21h-1.19l1.72-12.21c0.03-0.2,0.03-0.4,0.03-0.59c0-0.43-0.07-0.83-0.2-1.19
		c-0.66-1.52-2.28-2.21-4.09-2.21c-1.88,0-3.93,0.5-5.21,0.99l-2.11,15.22h-1.19l2.28-16.17c2.08-0.69,4.26-1.25,6.4-1.25
		c2.28,0.07,4.32,0.99,5.12,2.97c0.17,0.43,0.23,0.89,0.23,1.39C735.05,525.43,735.01,525.69,734.98,525.99z"/>
	<path class="st3" d="M739.4,538.2h-1.22l2.38-17.1h1.22L739.4,538.2z M742.6,516.45c0.17,0.17,0.23,0.4,0.23,0.63v0.17
		c-0.1,0.63-0.63,1.12-1.25,1.12c-0.3,0-0.56-0.1-0.76-0.33c-0.17-0.17-0.23-0.4-0.23-0.63c0-0.36,0.13-0.69,0.43-0.96
		c0.26-0.23,0.56-0.33,0.86-0.33C742.17,516.12,742.44,516.22,742.6,516.45z"/>
	<path class="st3" d="M745.97,521.1h11.42l0.4,0.79l-13.07,15.15h10.76l-0.13,1.16h-11.75l-0.53-0.92l13.04-15.05h-10.26
		L745.97,521.1z"/>
</g>
<path class="st4" d="M400,1129.2c-107.35,0-194.38-87.02-194.38-194.37S292.65,740.45,400,740.45s194.38,87.02,194.38,194.38
	C594.38,1042.18,507.35,1129.2,400,1129.2z M380.62,1012.58l137.42-137.44l-27.48-27.48L380.62,957.61l-54.99-54.99l-27.48,27.48
	L380.62,1012.58z"/>
<g>
</g>
<g>
</g>
<g>
</g>
<g>
</g>
<g>
</g>
<g>
</g>
</svg>
